Charlie - Minden kutya a mennybe jut 
(All Dogs Go to Heaven) 	 
színes, magyarul beszélő, amerikai-angol rajzfilm, 81 perc, 1989

rendező: Don Bluth, Gary Goldman
író: Don Bluth, Gary Goldman, Monica Parker, David N. Weiss, David Steinberg, Ken Cromar, Larry Leker, Linda Miller, John Pomeroy, Guy Schulman
forgatókönyvíró: David N. Weiss
zeneszerző: Ralph Burns, Charles Strouse, T. J. Kuenster
vágó: John K. Carr, Lisa Dorney



Charlie B. Barkin, egy pernahajder németjuhász, a csibészes bájával, csavaros eszével és meleg kutya-szívével egy csapásra meghódítja a néző szívét. Charlie összeakad egy kedves kis árvalánnyal, Anne-Marie-val, aki beszél az állatok nyelvén. Közös kalandjaik bővelkednek izgalomban, nevetésben és igaz szeretetben.



   Charlie.Minden.Kutya.Mennybe.Jut[1989].DVDRip.DivX.HUN-ANUBIS.avi

   Format : AVI
      Format/Info : Audio Video Interleave
      File size : 1.33 GiB
      Duration : 1h 21mn
      Overall bit rate : 2 353 Kbps
      Writing application : Nandub v1.0rc2
      Writing library : Nandub build 1853/release
   Video #0
      ID : 0
      Format : MPEG-4 Visual
      Format profile : Simple@L1
      Format settings, BVOP : No
      Format settings, QPel : No
      Format settings, GMC : No warppoints
      Format settings, Matrix : Default (H.263)
      Codec ID : DX50
      Codec ID/Hint : DivX 5
      Duration : 1h 21mn
      Bit rate : 2 152 Kbps
      Width : 720 pixels
      Height : 540 pixels
      Display aspect ratio : 4:3
      Frame rate : 25.000 fps
      Resolution : 24 bits
      Colorimetry : 4:2:0
      Scan type : Progressive
      Bits/(Pixel*Frame) : 0.221
      Stream size : 1.22 GiB (91%)
      Writing library : Lavc52.32.0
   Audio #1
      ID : 1
      Format : MPEG Audio
      Format version : Version 1
      Format profile : Layer 3
      Codec ID : 55
      Codec ID/Hint : MP3
      Duration : 1h 20mn
      Bit rate mode : Constant
      Bit rate : 192 Kbps
      Channel(s) : 2 channels
      Sampling rate : 44.1 KHz
      Resolution : 16 bits
      Video delay : 3s 857ms
      Stream size : 111 MiB (8%)
      Alignment : Split accross interleaves
      Interleave, duration : 40 ms (1.00 video frame)
      Interleave, preload duration : 500 ms